HIERARCHY
ROOT Hips
{
  OFFSET -27.3825 93.2414 -29.4013
  CHANNELS 6 Xposition Yposition Zposition Zrotation Xrotation Yrotation
  JOINT LeftUpLeg
  {
    OFFSET 9.63379 -0.250344 0
    CHANNELS 6 Xposition Yposition Zposition Zrotation Xrotation Yrotation
    JOINT LeftLeg
    {
      OFFSET 0 -40.4779 -1.71313
      CHANNELS 6 Xposition Yposition Zposition Zrotation Xrotation Yrotation
      JOINT LeftFoot
      {
        OFFSET 0.0126047 -40.4416 -0.864524
        CHANNELS 6 Xposition Yposition Zposition Zrotation Xrotation Yrotation
        JOINT LeftToeBase
        {
          OFFSET -0.183287 -12.1867 8.28226
          CHANNELS 6 Xposition Yposition Zposition Zrotation Xrotation Yrotation
          End Site
          {
            OFFSET 0 0 9.15615
          }
        }
      }
    }
  }
  JOINT RightUpLeg
  {
    OFFSET -9.63379 -0.250344 0
    CHANNELS 6 Xposition Yposition Zposition Zrotation Xrotation Yrotation
    JOINT RightLeg
    {
      OFFSET 0 -40.478 -1.71313
      CHANNELS 6 Xposition Yposition Zposition Zrotation Xrotation Yrotation
      JOINT RightFoot
      {
        OFFSET -0.0126047 -40.4414 -0.864524
        CHANNELS 6 Xposition Yposition Zposition Zrotation Xrotation Yrotation
        JOINT RightToeBase
        {
          OFFSET 0.183287 -12.1867 8.28226
          CHANNELS 6 Xposition Yposition Zposition Zrotation Xrotation Yrotation
          End Site
          {
            OFFSET 0.00319481 0 9.156
          }
        }
      }
    }
  }
  JOINT Spine
  {
    OFFSET 0 5.60909 -1.89659
    CHANNELS 6 Xposition Yposition Zposition Zrotation Xrotation Yrotation
    JOINT Spine1
    {
      OFFSET 0 6.56349 1.09934
      CHANNELS 6 Xposition Yposition Zposition Zrotation Xrotation Yrotation
      JOINT Spine2
      {
        OFFSET 0 7.57662 1.04304
        CHANNELS 6 Xposition Yposition Zposition Zrotation Xrotation Yrotation
        JOINT Spine3
        {
          OFFSET 0 8.29213 0.399731
          CHANNELS 6 Xposition Yposition Zposition Zrotation Xrotation Yrotation
          JOINT Spine4
          {
            OFFSET 0 8.9581 -0.526302
            CHANNELS 6 Xposition Yposition Zposition Zrotation Xrotation Yrotation
            JOINT Neck
            {
              OFFSET 0 18.4163 -4.35419
              CHANNELS 6 Xposition Yposition Zposition Zrotation Xrotation Yrotation
              JOINT Head
              {
                OFFSET 0 8.97127 1.78542
                CHANNELS 6 Xposition Yposition Zposition Zrotation Xrotation Yrotation
                End Site
                {
                  OFFSET 0 19.3737 0.971395
                }
              }
            }
            JOINT LeftShoulder
            {
              OFFSET 6.14423 15.3316 -3.79324
              CHANNELS 6 Xposition Yposition Zposition Zrotation Xrotation Yrotation
              JOINT LeftArm
              {
                OFFSET 9.01906 -1.11411 -1.79347
                CHANNELS 6 Xposition Yposition Zposition Zrotation Xrotation Yrotation
                JOINT LeftForeArm
                {
                  OFFSET 27.687 0 0
                  CHANNELS 6 Xposition Yposition Zposition Zrotation Xrotation Yrotation
                  JOINT LeftHand
                  {
                    OFFSET 27.8738 0 0
                    CHANNELS 6 Xposition Yposition Zposition Zrotation Xrotation Yrotation
                    End Site
                    {
                      OFFSET 0 0 0
                    }
                  }
                }
              }
            }
            JOINT RightShoulder
            {
              OFFSET -6.14423 15.3316 -3.79324
              CHANNELS 6 Xposition Yposition Zposition Zrotation Xrotation Yrotation
              JOINT RightArm
              {
                OFFSET -9.01884 -1.11411 -1.79347
                CHANNELS 6 Xposition Yposition Zposition Zrotation Xrotation Yrotation
                JOINT RightForeArm
                {
                  OFFSET -27.0381 0.00109999 0
                  CHANNELS 6 Xposition Yposition Zposition Zrotation Xrotation Yrotation
                  JOINT RightHand
                  {
                    OFFSET -28.5227 0 0
                    CHANNELS 6 Xposition Yposition Zposition Zrotation Xrotation Yrotation
                    End Site
                    {
                      OFFSET 0 0 0
                    }
                  }
                }
              }
            }
          }
        }
      }
    }
  }
}
MOTION
Frames:	5
Frame Time:	0.00833333
-31.4863 94.7747 5.38917 1.59409 4.00448 2.35247 9.63379 -0.250344 -7.15256e-007 -9.59551 -31.3619 -4.44665 0 -40.4779 -1.71313 7.59079 44.7378 -3.87392 0.0126047 -40.4416 -0.864524 -0.0758739 -2.35205 -0.000212076 -0.183287 -12.1867 8.28226 1.03916e-010 7.08055e-011 2.56162e-011 -9.63379 -0.250344 -7.15256e-007 -4.03635 -4.7053 3.79552 0 -40.478 -1.71313 9.17926 6.55175 -1.92108 -0.0126047 -40.4414 -0.864524 0.25782 2.23058 -0.00624686 0.183287 -12.1867 8.28226 -8.59465e-012 -4.35482e-011 4.30774e-011 -2.64698e-023 5.60909 -1.89659 -2.39206 -0.539829 -0.246755 0 6.56349 1.09934 0.00621096 -1.13876 -0.116467 0 7.57662 1.04304 0.00620517 -1.13885 -0.115426 0 8.29213 0.399731 0.00622188 -1.13895 -0.114383 0 8.9581 -0.526302 0.00626114 -1.13904 -0.113341 0 18.4163 -4.35419 -6.45475 -2.35906 -0.674646 1.05879e-022 8.97127 1.78542 4.38704 5.21898 -3.58521 6.14423 15.3316 -3.79324 -30.4473 1.55401 -0.752733 9.01906 -1.11411 -1.79347 -51.6094 -7.44224 -12.3475 27.687 0 0 11.5612 18.1628 0.386902 27.8738 0 0 -2.00233 -3.24211 -11.0987 -6.14423 15.3316 -3.79324 33.7209 2.1708 1.95256 -9.01884 -1.11411 -1.79347 35.0552 17.6731 16.2566 -27.0381 0.00109999 5.96046e-008 -2.02656 9.67469 5.81998 -28.5227 0 0 -20.6672 -3.45176 9.04289 
-31.4623 94.8038 6.74396 1.87316 4.08567 1.53291 9.63379 -0.250344 -7.15256e-007 -8.88865 -31.5435 -3.8056 0 -40.4779 -1.71313 6.13002 41.2746 -2.89147 0.0126047 -40.4416 -0.864524 -0.0945821 -2.54425 -0.000590775 -0.183287 -12.1867 8.28226 1.03916e-010 7.08055e-011 2.56162e-011 -9.63379 -0.250344 -7.15256e-007 -4.02755 -3.87356 5.16481 0 -40.478 -1.71313 9.02838 6.21348 -1.69642 -0.0126047 -40.4414 -0.864524 0.272803 1.87861 -0.0054909 0.183287 -12.1867 8.28226 -8.59465e-012 -4.35482e-011 4.30774e-011 -2.64698e-023 5.60909 -1.89659 -2.20183 -0.536498 -0.198221 0 6.56349 1.09934 -0.109597 -1.15012 0.0104222 0 7.57662 1.04304 -0.109565 -1.15009 0.0114219 0 8.29213 0.399731 -0.109511 -1.15007 0.0124217 0 8.9581 -0.526302 -0.109436 -1.15005 0.0134211 0 18.4163 -4.35419 -6.46336 -2.28274 -0.567848 1.05879e-022 8.97127 1.78542 4.57408 5.26415 -3.53923 6.14423 15.3316 -3.79324 -30.534 1.57152 -0.790626 9.01906 -1.11411 -1.79347 -51.4884 -7.64175 -11.5146 27.687 0 0 11.5697 18.8652 0.129498 27.8738 0 0 -2.81487 -3.43343 -10.319 -6.14423 15.3316 -3.79324 33.6078 2.20353 2.05019 -9.01884 -1.11411 -1.79347 34.6715 18.5184 17.6025 -27.0381 0.00109999 5.96046e-008 -2.54347 9.18393 7.27875 -28.5227 0 0 -20.4111 -3.41776 9.17242 
-31.438 94.788 8.15132 2.00181 4.12204 0.715959 9.63379 -0.250344 -7.15256e-007 -8.00723 -31.3956 -3.10616 0 -40.4779 -1.71313 4.9068 37.3862 -2.13295 0.0126047 -40.4416 -0.864524 -0.0946086 -2.56984 -0.000892662 -0.183287 -12.1867 8.28226 1.03916e-010 7.08055e-011 2.56162e-011 -9.63379 -0.250344 -7.15256e-007 -3.93494 -3.00475 6.15187 0 -40.478 -1.71313 8.85962 6.01642 -1.46224 -0.0126047 -40.4414 -0.864524 0.271707 1.56914 -0.00474803 0.183287 -12.1867 8.28226 -8.59465e-012 -4.35482e-011 4.30774e-011 -2.64698e-023 5.60909 -1.89659 -1.95772 -0.53655 -0.135501 0 6.56349 1.09934 -0.202559 -1.15712 0.131757 0 7.57662 1.04304 -0.202519 -1.15703 0.132657 0 8.29213 0.399731 -0.202461 -1.15693 0.133557 0 8.9581 -0.526302 -0.202383 -1.15684 0.134456 0 18.4163 -4.35419 -6.40437 -2.19542 -0.471002 1.05879e-022 8.97127 1.78542 4.65741 5.24784 -3.45557 6.14423 15.3316 -3.79324 -30.5634 1.56374 -0.765396 9.01906 -1.11411 -1.79347 -51.406 -7.82073 -10.6668 27.687 0 0 11.5262 19.5693 6.75107e-012 27.8738 0 0 -3.41653 -3.57598 -9.68679 -6.14423 15.3316 -3.79324 33.5583 2.24419 2.15838 -9.01884 -1.11411 -1.79347 34.1676 19.4165 18.9371 -27.0381 0.00109999 5.96046e-008 -3.06723 8.70997 8.68721 -28.5227 0 0 -20.3049 -3.41649 9.30281 
-31.4185 94.738 9.61126 1.95068 4.09331 -0.0904963 9.63379 -0.250344 -7.15256e-007 -6.8726 -30.6986 -2.27747 0 -40.4779 -1.71313 3.80488 32.6392 -1.56166 0.0126047 -40.4416 -0.864524 -0.067601 -2.24679 -0.00135244 -0.183287 -12.1867 8.28226 1.03916e-010 7.08055e-011 2.56162e-011 -9.63379 -0.250344 -7.15256e-007 -3.68405 -2.03826 6.67726 0 -40.478 -1.71313 8.62454 5.88628 -1.19385 -0.0126047 -40.4414 -0.864524 0.254387 1.35842 -0.00404215 0.183287 -12.1867 8.28226 -8.59465e-012 -4.35482e-011 4.30774e-011 -2.64698e-023 5.60909 -1.89659 -1.64778 -0.538501 -0.0596792 0 6.56349 1.09934 -0.271762 -1.15627 0.24453 0 7.57662 1.04304 -0.271683 -1.15613 0.245283 0 8.29213 0.399731 -0.271588 -1.15599 0.246034 0 8.9581 -0.526302 -0.271476 -1.15585 0.246784 0 18.4163 -4.35419 -6.26309 -2.0938 -0.38399 1.05879e-022 8.97127 1.78542 4.61558 5.14659 -3.32367 6.14423 15.3316 -3.79324 -30.5311 1.52739 -0.669962 9.01906 -1.11411 -1.79347 -51.3613 -7.98555 -9.79722 27.687 0 0 11.4167 20.3944 5.8567e-012 27.8738 0 0 -3.78945 -3.66681 -9.23104 -6.14423 15.3316 -3.79324 33.5983 2.29771 2.28569 -9.01884 -1.11411 -1.79347 33.5017 20.4091 20.2664 -27.0381 0.00109999 5.96046e-008 -3.60299 8.24426 10.0779 -28.5227 0 0 -20.3791 -3.4528 9.42463 
-31.4061 94.6572 11.1097 1.74748 4.00503 -0.901442 9.63379 -0.250344 -7.15256e-007 -5.49834 -29.5005 -1.3036 0 -40.4779 -1.71313 2.75164 27.0712 -1.11423 0.0126047 -40.4416 -0.864524 -0.0164241 -1.61009 -0.00212151 -0.183287 -12.1867 8.28226 1.03916e-010 7.08055e-011 2.56162e-011 -9.63379 -0.250344 -7.15256e-007 -3.26419 -1.00376 6.87575 0 -40.478 -1.71313 8.31623 5.82527 -0.884587 -0.0126047 -40.4414 -0.864524 0.226714 1.20604 -0.00339695 0.183287 -12.1867 8.28226 -8.59465e-012 -4.35482e-011 4.30774e-011 -2.64698e-023 5.60909 -1.89659 -1.27222 -0.541109 0.0280722 0 6.56349 1.09934 -0.32446 -1.14774 0.351323 0 7.57662 1.04304 -0.324286 -1.14756 0.351907 0 8.29213 0.399731 -0.324097 -1.1474 0.352489 0 8.9581 -0.526302 -0.323896 -1.14723 0.353067 0 18.4163 -4.35419 -6.06816 -1.99372 -0.300764 1.05879e-022 8.97127 1.78542 4.48888 4.98218 -3.15574 6.14423 15.3316 -3.79324 -30.4532 1.46862 -0.519346 9.01906 -1.11411 -1.79347 -51.3358 -8.15075 -8.91129 27.687 0 0 11.2864 21.3681 4.90603e-012 27.8738 0 0 -4.00292 -3.72201 -8.88048 -6.14423 15.3316 -3.79324 33.7073 2.36193 2.42981 -9.01884 -1.11411 -1.79347 32.6876 21.4915 21.6019 -27.0381 0.00109999 5.96046e-008 -4.15014 7.75333 11.5148 -28.5227 0 0 -20.5622 -3.51088 9.53519 
